<?xml version="1.0" standalone="no"?><!DOCTYPE svg PUBLIC "-//W3C//DTD SVG 1.1//EN" "http://www.w3.org/Graphics/SVG/1.1/DTD/svg11.dtd"><svg t="1712903911604" class="icon" viewBox="0 0 1024 1024" version="1.1" xmlns="http://www.w3.org/2000/svg" p-id="5132" width="32" height="32" xmlns:xlink="http://www.w3.org/1999/xlink"><path d="M102.4 0h819.2a102.4 102.4 0 0 1 102.4 102.4v819.2a102.4 102.4 0 0 1-102.4 102.4H102.4a102.4 102.4 0 0 1-102.4-102.4V102.4a102.4 102.4 0 0 1 102.4-102.4z m204.8 204.8v584.9088h259.6864c59.8016 0 107.3152-12.288 141.7216-35.2256 40.1408-27.8528 60.6208-70.4512 60.6208-127.7952 0-39.3216-11.4688-70.4512-32.768-95.0272-21.2992-24.576-50.7904-40.96-89.2928-47.5136 29.4912-9.8304 53.248-25.3952 71.2704-46.6944 17.2032-23.7568 26.2144-52.4288 26.2144-85.1968 0-45.8752-15.5648-81.92-46.6944-108.1344C666.0096 217.9072 622.592 204.8 568.5248 204.8H307.2z m67.1744 56.5248H552.96c40.96 0 72.0896 7.3728 93.3888 23.7568 21.2992 16.384 31.9488 40.96 31.9488 73.728 0 33.5872-11.4688 58.9824-32.768 76.1856-21.2992 16.384-52.4288 25.3952-93.3888 25.3952H374.3744V261.3248z m0 254.7712H561.152c45.056 0 79.4624 8.192 103.2192 26.2144 24.576 18.0224 37.6832 45.8752 37.6832 83.5584 0 37.6832-14.7456 66.3552-43.4176 84.3776-24.576 14.7456-56.5248 22.9376-97.4848 22.9376H374.3744V516.096z" fill="#d81e06" p-id="5133"></path></svg>