<?xml version="1.0" standalone="no"?><!DOCTYPE svg PUBLIC "-//W3C//DTD SVG 1.1//EN" "http://www.w3.org/Graphics/SVG/1.1/DTD/svg11.dtd"><svg t="1712834096638" class="icon" viewBox="0 0 1024 1024" version="1.1" xmlns="http://www.w3.org/2000/svg" p-id="6259" xmlns:xlink="http://www.w3.org/1999/xlink" width="32" height="32"><path d="M341.333333 512a149.333333 149.333333 0 1 1-298.666666 0 149.333333 149.333333 0 0 1 298.666666 0z m-149.333333 64a64 64 0 1 0 0-128 64 64 0 0 0 0 128zM981.333333 512a149.333333 149.333333 0 1 1-298.666666 0 149.333333 149.333333 0 0 1 298.666666 0z m-149.333333 64a64 64 0 1 0 0-128 64 64 0 0 0 0 128z" p-id="6260"></path><path d="M714.666667 554.666667h-405.333334v-85.333334h405.333334v85.333334z" p-id="6261"></path></svg>