<?xml version="1.0" standalone="no"?><!DOCTYPE svg PUBLIC "-//W3C//DTD SVG 1.1//EN" "http://www.w3.org/Graphics/SVG/1.1/DTD/svg11.dtd"><svg t="1712897207421" class="icon" viewBox="0 0 1024 1024" version="1.1" xmlns="http://www.w3.org/2000/svg" p-id="6177" xmlns:xlink="http://www.w3.org/1999/xlink" width="32" height="32"><path d="M811.562667 348.202667l78.848-78.848a10.666667 10.666667 0 0 0 0-15.082667l-120.682667-120.682667a10.666667 10.666667 0 0 0-15.082667 0l-78.848 78.848 135.765334 135.765334z m-45.248 45.248l-135.765334-135.765334L212.053333 676.181333 171.306667 852.693333l176.512-40.725333L766.293333 393.450667zM814.997333 88.32l120.682667 120.682667a74.666667 74.666667 0 0 1 0 105.6L386.56 863.701333a32 32 0 0 1-15.424 8.533334L135.829333 926.570667a32 32 0 0 1-38.4-38.378667l54.314667-235.306667a32 32 0 0 1 8.554667-15.445333L709.397333 88.32a74.666667 74.666667 0 0 1 105.6 0z" fill="#333333" p-id="6178"></path></svg>