<?xml version="1.0" standalone="no"?><!DOCTYPE svg PUBLIC "-//W3C//DTD SVG 1.1//EN" "http://www.w3.org/Graphics/SVG/1.1/DTD/svg11.dtd"><svg t="1713284376592" class="icon" viewBox="0 0 1024 1024" version="1.1" xmlns="http://www.w3.org/2000/svg" p-id="10376" xmlns:xlink="http://www.w3.org/1999/xlink" width="32" height="32"><path d="M42.666667 512c0 259.2 210.133333 469.333333 469.333333 469.333333s469.333333-210.133333 469.333333-469.333333S771.2 42.666667 512 42.666667 42.666667 252.8 42.666667 512z m469.333333-384a384 384 0 1 1 0 768 384 384 0 0 1 0-768z m-256 384a42.666667 42.666667 0 0 0 42.666667 42.666667h170.666666v170.666666a42.666667 42.666667 0 1 0 85.333334 0v-170.666666h170.666666a42.666667 42.666667 0 1 0 0-85.333334h-170.666666V298.666667a42.666667 42.666667 0 1 0-85.333334 0v170.666666H298.666667a42.666667 42.666667 0 0 0-42.666667 42.666667z" fill="#ea9518" p-id="10377"></path></svg>