<?xml version="1.0" standalone="no"?><!DOCTYPE svg PUBLIC "-//W3C//DTD SVG 1.1//EN" "http://www.w3.org/Graphics/SVG/1.1/DTD/svg11.dtd"><svg t="1712833798668" class="icon" viewBox="0 0 1024 1024" version="1.1" xmlns="http://www.w3.org/2000/svg" p-id="2304" xmlns:xlink="http://www.w3.org/1999/xlink" width="32" height="32"><path d="M810.666667 42.666667c-93.866667 0-170.666667 76.8-170.666667 170.666666 0 29.866667 8.533333 59.733333 25.6 85.333334L298.666667 665.6c-25.6-17.066667-55.466667-25.6-85.333334-25.6-93.866667 0-170.666667 76.8-170.666666 170.666667s76.8 170.666667 170.666666 170.666666 170.666667-76.8 170.666667-170.666666c0-29.866667-8.533333-59.733333-25.6-85.333334L725.333333 358.4c25.6 17.066667 55.466667 25.6 85.333334 25.6 93.866667 0 170.666667-76.8 170.666666-170.666667s-76.8-170.666667-170.666666-170.666666zM213.333333 896c-46.933333 0-85.333333-38.4-85.333333-85.333333s38.4-85.333333 85.333333-85.333334 85.333333 38.4 85.333334 85.333334-38.4 85.333333-85.333334 85.333333zM810.666667 298.666667c-46.933333 0-85.333333-38.4-85.333334-85.333334s38.4-85.333333 85.333334-85.333333 85.333333 38.4 85.333333 85.333333-38.4 85.333333-85.333333 85.333334z" p-id="2305"></path></svg>