<?xml version="1.0" standalone="no"?><!DOCTYPE svg PUBLIC "-//W3C//DTD SVG 1.1//EN" "http://www.w3.org/Graphics/SVG/1.1/DTD/svg11.dtd"><svg t="1731151087672" class="icon" viewBox="0 0 1024 1024" version="1.1" xmlns="http://www.w3.org/2000/svg" p-id="10140" xmlns:xlink="http://www.w3.org/1999/xlink" width="32" height="32"><path d="M510.57 855.31c190.39 0 344.74-154.34 344.74-344.74S700.97 165.84 510.57 165.84 165.84 320.18 165.84 510.57s154.34 344.74 344.73 344.74z m0 98.5c-244.79 0-443.23-198.44-443.23-443.23S265.78 67.34 510.57 67.34 953.8 265.78 953.8 510.57 755.36 953.81 510.57 953.81z" fill="#000000" p-id="10141"></path><path d="M904.56 461.33v98.5H584.45c-68 0-123.12-55.12-123.12-123.12V91.97h98.5V436.7c0 13.6 11.02 24.62 24.62 24.62h320.11z" fill="#000000" p-id="10142"></path></svg>