<?xml version="1.0" standalone="no"?><!DOCTYPE svg PUBLIC "-//W3C//DTD SVG 1.1//EN" "http://www.w3.org/Graphics/SVG/1.1/DTD/svg11.dtd"><svg t="1729146720280" class="icon" viewBox="0 0 1024 1024" version="1.1" xmlns="http://www.w3.org/2000/svg" p-id="6102" xmlns:xlink="http://www.w3.org/1999/xlink" width="32" height="32"><path d="M832.194 162.711l-58.217 0 0 58.214 29.109 0 0 465.717-232.869 0 0 232.859-349.303 0 0-698.577 29.109 0 0-58.214-58.217 0c-16.01 0-29.109 13.098-29.109 29.108l0 756.791c0 16.009 13.1 29.108 29.109 29.108l458.461 0 211.037-211.028 0-574.87c0-16.009-13.1-29.108-29.109-29.108l0 0zM628.434 919.503l0-174.644 174.651 0-174.651 174.644zM744.869 162.711l-116.434 0 0-58.214c0-32.018-26.197-58.214-58.217-58.214l-116.434 0c-32.023 0-58.217 26.196-58.217 58.214l0 58.214-116.434 0 0 116.43 465.738 0 0-116.43zM570.217 162.711l-116.434 0 0-58.11c0.032-0.036 0.064-0.073 0.105-0.105l116.221 0c0.041 0.032 0.079 0.068 0.109 0.105l0 58.11zM570.217 162.711zM555.492 525.451l71.502 0 0.116-47.148-47.149 0 76.946-141.734-80.422 0-52.971 117.305-22.338 0.099-54.196-117.403-80.415 0 76.542 141.734-47.746 0 0 47.175 70.985 0 6.937 14.389 0 22.855-77.92 0 0 47.158 77.92 0 0 68.503 75.404 0 0-68.503 78.426 0-0.006-47.158-78.4 0 0-22.855 6.788-14.419zM555.492 525.451z" fill="#272636" p-id="6103"></path></svg>