<?xml version="1.0" standalone="no"?><!DOCTYPE svg PUBLIC "-//W3C//DTD SVG 1.1//EN" "http://www.w3.org/Graphics/SVG/1.1/DTD/svg11.dtd"><svg t="1729069246042" class="icon" viewBox="0 0 1024 1024" version="1.1" xmlns="http://www.w3.org/2000/svg" p-id="4314" xmlns:xlink="http://www.w3.org/1999/xlink" width="32" height="32"><path d="M849.2032 610.26304h-62.85312a287.17056 287.17056 0 0 1-24.9856 60.86656l44.07296 44.07296a52.18304 52.18304 0 0 1 0 73.78944l-36.864 36.864a52.20352 52.20352 0 0 1-73.78944 0l-44.09344-44.07296c-19.06688 10.62912-39.44448 18.98496-60.86656 24.9856v62.93504A51.9168 51.9168 0 0 1 537.9072 921.6h-51.89632a51.9168 51.9168 0 0 1-51.9168-51.89632v-62.93504a286.57664 286.57664 0 0 1-62.85312-26.2144l-45.3632 45.3632a52.1216 52.1216 0 0 1-73.728 0l-36.864-36.864a52.18304 52.18304 0 0 1 0-73.76896l46.14144-46.14144a283.77088 283.77088 0 0 1-23.77728-58.81856h-62.8736A52.03968 52.03968 0 0 1 122.88 558.34624V506.4704a51.9168 51.9168 0 0 1 51.9168-51.89632h62.85312c6.06208-21.44256 14.4384-41.79968 24.9856-60.86656l-47.34976-47.34976a52.10112 52.10112 0 0 1 0-73.728l36.864-36.84352a52.1216 52.1216 0 0 1 73.728 0l47.34976 47.34976c19.06688-10.6496 39.44448-19.00544 60.86656-25.00608V195.25632A51.9168 51.9168 0 0 1 486.01088 143.36h51.89632A51.9168 51.9168 0 0 1 589.824 195.25632v62.85312c20.60288 5.85728 40.3456 13.76256 58.81856 23.77728l46.14144-46.12096a52.20352 52.20352 0 0 1 73.78944 0l36.864 36.864a52.10112 52.10112 0 0 1 0 73.70752l-45.3632 45.3632a279.3472 279.3472 0 0 1 26.2144 62.85312h62.91456A51.9168 51.9168 0 0 1 901.12 506.44992v51.89632a51.9168 51.9168 0 0 1-51.9168 51.9168zM512 376.79104a155.648 155.648 0 1 0 0 311.296 155.648 155.648 0 0 0 0-311.296z m0 233.472c-43.008 0-77.824-34.816-77.824-77.824 0-43.008 34.816-77.824 77.824-77.824 43.008 0 77.824 34.816 77.824 77.824 0 43.008-34.816 77.824-77.824 77.824z" fill="#000000" p-id="4315"></path></svg>