<?xml version="1.0" standalone="no"?><!DOCTYPE svg PUBLIC "-//W3C//DTD SVG 1.1//EN" "http://www.w3.org/Graphics/SVG/1.1/DTD/svg11.dtd"><svg t="1713965061956" class="icon" viewBox="0 0 1024 1024" version="1.1" xmlns="http://www.w3.org/2000/svg" p-id="9273" xmlns:xlink="http://www.w3.org/1999/xlink" width="32" height="32"><path d="M832 128a64 64 0 0 1 64 64v640a64 64 0 0 1-64 64H192a64 64 0 0 1-64-64V192a64 64 0 0 1 64-64h640z m-161.6 180.352L512 466.752 353.6 308.352l-45.248 45.248L466.752 512l-158.4 158.4 45.248 45.248L512 557.248l158.4 158.4 45.248-45.248L557.248 512l158.4-158.4-45.248-45.248z" fill="#d81e06" fill-opacity=".9" p-id="9274"></path></svg>