<?xml version="1.0" standalone="no"?><!DOCTYPE svg PUBLIC "-//W3C//DTD SVG 1.1//EN" "http://www.w3.org/Graphics/SVG/1.1/DTD/svg11.dtd"><svg t="1712834038417" class="icon" viewBox="0 0 1024 1024" version="1.1" xmlns="http://www.w3.org/2000/svg" p-id="4265" xmlns:xlink="http://www.w3.org/1999/xlink" width="32" height="32"><path d="M799 66.3H226c-88.2 0-160 71.8-160 160v569.1c0 88.2 71.8 160 160 160h573c88.2 0 160-71.8 160-160V226.3c0-88.2-71.8-160-160-160z m90 729.1c0 49.6-40.4 90-90 90H226c-49.6 0-90-40.4-90-90V226.3c0-49.6 40.4-90 90-90h573c49.6 0 90 40.4 90 90v569.1z" fill="#333333" p-id="4266"></path><path d="M641.2 332.2h-260c-19.2 0-34.8 15.7-34.8 34.8 0 19.2 15.7 34.8 34.8 34.8h96v256c0 19.2 15.7 34.8 34.8 34.8 19.2 0 34.8-15.7 34.8-34.8v-256h94.3c19.2 0 34.8-15.7 34.8-34.8 0.1-19.1-15.6-34.8-34.7-34.8z" fill="#286DE8" p-id="4267"></path></svg>